<svg id="Layer_1" data-name="Layer 1" xmlns="http://www.w3.org/2000/svg" viewBox="0 0 512 512">
  <defs>
    <style>
      .cls-1 {
        fill: #fff;
      }
    </style>
  </defs>
  <title>022-dribbble</title>
  <path class="cls-1" d="M257,512c140.93,0,255-114.05,255-255C512,116.57,398.41,0,257,0,116.18,0,0,116.11,0,257,0,398.53,116.71,512,257,512ZM125.38,440.22c18.59-70.84,84.81-128.48,169.52-154a701.54,701.54,0,0,1,35.85,183.36A224.08,224.08,0,0,1,257,482,227.13,227.13,0,0,1,125.38,440.22ZM360,457A726.32,726.32,0,0,0,324.34,278.8a342.18,342.18,0,0,1,156.08,4.75C471.49,359.18,424.91,423.44,360,457ZM297,209.36c50.9-19,104.86-50.43,134.21-95.88A227.1,227.1,0,0,1,481.95,253a374.73,374.73,0,0,0-167.87-2.77C308.63,236,303.12,222.85,297,209.36ZM409.92,90.65c-24.35,44-78.89,74.36-126,91.57A657.93,657.93,0,0,0,187.53,40.89,226.15,226.15,0,0,1,257,30,223.09,223.09,0,0,1,409.92,90.65ZM157.83,52.84c38,41,70.6,87.89,96.95,138.85-65.79,18.91-143,25.37-219.4,16.18A227.86,227.86,0,0,1,157.83,52.84Zm-127,184.7c81.92,10,165.51,2.93,237.28-18.52q8.79,19.07,16.45,38.77c-82.43,25-157.11,81.29-184.31,161.81C57,378.61,30,320.87,30,257,30,250.45,30.3,244,30.84,237.54Z"/>
</svg>
