<svg id="Layer_1" data-name="Layer 1" xmlns="http://www.w3.org/2000/svg" viewBox="0 0 512 512">
  <defs>
    <style>
      .cls-1 {
        fill: #fff;
      }
    </style>
  </defs>
  <title>025-instagram</title>
  <path class="cls-1" d="M75,512H437a75.08,75.08,0,0,0,75-75V75A75.08,75.08,0,0,0,437,0H75A75.08,75.08,0,0,0,0,75V437A75.08,75.08,0,0,0,75,512ZM30,75A45.05,45.05,0,0,1,75,30H437a45.05,45.05,0,0,1,45,45V437a45.05,45.05,0,0,1-45,45H75a45.05,45.05,0,0,1-45-45Z"/>
  <path class="cls-1" d="M256,391c74.44,0,135-60.56,135-135S330.44,121,256,121,121,181.56,121,256,181.56,391,256,391Zm0-240A105,105,0,1,1,151,256,105.12,105.12,0,0,1,256,151Z"/>
  <path class="cls-1" d="M406,151a45,45,0,1,0-45-45A45.05,45.05,0,0,0,406,151Zm0-60a15,15,0,1,1-15,15A15,15,0,0,1,406,91Z"/>
</svg>
