<svg id="Layer_1" data-name="Layer 1" xmlns="http://www.w3.org/2000/svg" viewBox="0 0 512 512">
  <defs>
    <style>
      .cls-1 {
        fill: #fff;
      }
    </style>
  </defs>
  <title>038-github</title>
  <path class="cls-1" d="M256,0C115.3,0,0,116.3,0,257,0,396.88,114.25,512,256,512c141.57,0,256-114.95,256-255C512,116.3,396.7,0,256,0Zm45,477.5a227.25,227.25,0,0,1-90,0V407.3c0-16.8,4.5-22.8,10.5-30.9,3.05-3.49,4.9-6.62,18.6-27.3L217,345.5c-59.4-8.7-82.8-39.6-92.1-63.6-12-32.1-5.7-72.3,15.9-97.8,3.3-3.9,6-10.5,3.6-17.4-4.5-13.8-3.9-35.7-.9-44.1,15.91,2.27,32.26,13.67,45.9,21.9,6.29,3.67,9.58,2.7,12.6,3,11-2.28,28.06-7.8,54.3-7.8a183.82,183.82,0,0,1,50.1,7.2c3-.07,7.83,2.48,16.2-2.4,14.26-8.69,30.06-19.69,45.9-21.9,3,8.4,3.6,30.3-.9,44.1-2.4,6.9.3,13.5,3.6,17.4,21.6,25.5,27.9,65.7,15.9,97.8-9.3,24-32.7,54.9-92.1,63.6l-23.1,3.6c14.16,21.37,15.65,23.93,18.6,27.3,6,8.1,10.5,14.1,10.5,30.9Zm30-8.7V407.3c0-17.1-3.6-28.5-8.4-36.9,45.6-12.3,78-39.3,92.4-78,15.3-40.8,8.4-89.4-17.1-123,4.5-20.1,4.5-52.2-6.3-67.2A23.42,23.42,0,0,0,371.8,92h-.3c-23.26,1.26-41.57,13-61.2,24.9a211.58,211.58,0,0,0-54.6-7.2,207.23,207.23,0,0,0-53.7,7.2c-20.66-12.46-38.8-23.67-62.7-24.9-7.5,0-14.1,3.6-18.9,10.2-10.8,15-10.8,47.1-6.3,67.2C88.6,203,81.7,251.9,97,292.4c14.4,38.7,46.8,65.7,92.4,78-3.72,6.51-6.67,14.91-7.83,26.29-9.21,3.18-17.2,4.21-24.63,2-7.84-2.32-13.94-7.55-19.25-16.47-11.91-20-32.21-36.36-55.31-34.23L85,377.89c10.7-1,21.35,10.34,26.88,19.67,9.13,15.37,21.42,25.45,36.55,29.91,11.23,3.31,21.5,3.23,32.55.87V468.8C93.7,438.2,30,354.8,30,257,30,132.8,131.8,30,256,30S482,132.8,482,257C482,354.8,418.3,438.2,331,468.8Z"/>
</svg>
