<svg id="Layer_1" data-name="Layer 1" xmlns="http://www.w3.org/2000/svg" viewBox="0 0 512 512">
  <defs>
    <style>
      .cls-1 {
        fill: #fff;
      }
    </style>
  </defs>
  <title>045-linkedin</title>
  <path class="cls-1" d="M437,0H75A75.08,75.08,0,0,0,0,75V437a75.08,75.08,0,0,0,75,75H437a75.08,75.08,0,0,0,75-75V75A75.08,75.08,0,0,0,437,0Zm45,437a45.05,45.05,0,0,1-45,45H75a45.05,45.05,0,0,1-45-45V75A45.05,45.05,0,0,1,75,30H437a45.05,45.05,0,0,1,45,45Z"/>
  <path class="cls-1" d="M91,422h90V210H91Zm30-182h30V392H121Z"/>
  <path class="cls-1" d="M331.09,210H331a89.83,89.83,0,0,0-30,5.1V210H211V422h90V315a15,15,0,0,1,30,0V422h90V304.69C421,256.14,381.62,210,331.09,210ZM391,392H361V315a45,45,0,0,0-90,0v77H241V240h30v30l24-18a59.46,59.46,0,0,1,36-12h.06C363,240,391,270.26,391,304.69Z"/>
  <path class="cls-1" d="M91,180h90V90H91Zm30-60h30v30H121Z"/>
</svg>
