<svg id="Capa_1" data-name="Capa 1" xmlns="http://www.w3.org/2000/svg" viewBox="0 0 512 384">
  <defs>
    <style>
      .cls-1 {
        fill: #fff;
      }
    </style>
  </defs>
  <title>envelope</title>
  <path class="cls-1" d="M464,64H48A48.05,48.05,0,0,0,0,112V400a48.05,48.05,0,0,0,48,48H464a48.05,48.05,0,0,0,48-48V112A48.05,48.05,0,0,0,464,64Zm0,32a15.91,15.91,0,0,1,6.13,1.24L256,282.83,41.87,97.24A15.93,15.93,0,0,1,48,96Zm0,320H48a16,16,0,0,1-16-16V131l213.52,185a16,16,0,0,0,21,0L480,131V400A16,16,0,0,1,464,416Z" transform="translate(0 -64)"/>
</svg>
