<svg id="aaafdec0-95c8-49a3-a8f8-64216c6da511" xmlns="http://www.w3.org/2000/svg" viewBox="0 0 1013.45 610.29">
  <defs>
    <style>
      .cls-1 {
        fill: #f2f2f2;
      }

      .cls-2 {
        fill: #3f3d56;
      }

      .cls-3 {
        opacity: 0.1;
      }

      .cls-3, .cls-8 {
        isolation: isolate;
      }

      .cls-4 {
        fill: none;
        stroke: #3f3d56;
        stroke-miterlimit: 10;
      }

      .cls-5 {
        fill: #7780d4;
      }

      .cls-6 {
        fill: #46455b;
      }

      .cls-7 {
        fill: #a8a8a8;
      }

      .cls-8 {
        opacity: 0.2;
      }

      .cls-9 {
        fill: #a0616a;
      }

      .cls-10 {
        fill: #605d82;
      }

      .cls-11 {
        fill: #535070;
      }

      .cls-12 {
        fill: #fff;
      }

      .cls-13 {
        fill: #57b894;
      }
    </style>
  </defs>
  <title>undraw_message_sent_1030</title>
  <path class="cls-1" d="M689.47,348.39l8.69-1.5c.83-.15,1.66-.32,2.49-.48a71.34,71.34,0,0,1,45.55-131.5L734.81,242l27-23.56.18.06a71.34,71.34,0,0,1,43.59,91h0c-.45,1.29-1,2.51-1.5,3.75,7.62-3.83,14.93-8.28,20.89-14C837,287.71,843.63,271.75,851,252.1c14.64-39,28.73-78.47,42.26-118.07a71.31,71.31,0,0,1-33.34-86.36c.72-2.06,1.56-4,2.45-6,.22-.49.45-1,.68-1.45.9-1.87,1.86-3.7,2.91-5.45.17-.29.36-.56.54-.84q1.37-2.22,2.89-4.31c.38-.52.75-1,1.14-1.55,1.15-1.5,2.33-3,3.59-4.35.42-.47.86-.9,1.29-1.36q1.44-1.52,3-3c.54-.5,1.06-1,1.61-1.49l.41-.38,0,0a71.29,71.29,0,0,1,91.21-2L956.82,50.78,983.5,27.5a70.94,70.94,0,0,1,2.64,84l.07,0c-.29.43-.62.82-.92,1.24q-.84,1.18-1.73,2.33c-.76,1-1.55,1.92-2.35,2.85-.61.7-1.2,1.41-1.84,2.09-.92,1-1.89,1.92-2.87,2.85-.57.54-1.11,1.11-1.7,1.64q-2.3,2.05-4.76,3.9c-.58.43-1.18.81-1.77,1.22-1.15.81-2.31,1.61-3.5,2.35-.74.46-1.5.88-2.26,1.31-1.1.62-2.2,1.23-3.33,1.79-.8.4-1.6.78-2.42,1.15-1.16.53-2.33,1-3.51,1.48-.79.31-1.58.63-2.39.91-1.33.47-2.68.87-4,1.26-.68.2-1.36.42-2,.6-2,.52-4.09,1-6.17,1.3-.39.06-.79.09-1.18.15-1.73.25-3.46.45-5.21.58-.75.05-1.51.06-2.26.09-1.41.05-2.83.08-4.25.05-.83,0-1.66-.06-2.49-.11q-2.08-.12-4.16-.36c-.82-.1-1.64-.19-2.46-.31-1.49-.23-3-.52-4.46-.84l-.29-.06q-8.57,25.06-17.45,50a71.29,71.29,0,0,1,100.68,5.34q1.39,1.55,2.7,3.18l-24.66,27.28,33.39-13.33a71.1,71.1,0,0,1,2.85,54.31,70,70,0,0,1-9.06,17.53A71.31,71.31,0,0,1,871.46,254c-.63,1.68-1.23,3.37-1.86,5C863.08,276.42,855,298,838.68,313.6c-11,10.58-24.62,17.29-37.66,23q-12.73,5.54-25.8,10.24A71.5,71.5,0,0,1,743.3,357c-13.75,3.82-27.67,7-41.72,9.47L692.82,368c-7.87,1.35-15.95,2.74-24,4.34,1.15.34,2.31.67,3.46,1.07A71.36,71.36,0,0,1,720,442.8L665,459.66l49.7,7.89a71.37,71.37,0,0,1-118.93,21.11l1.52,5.06c1,3.35,2,6.68,3,10,13.08,44.94,7.45,80.29-15.85,99.53L571.8,587.92c22.68-18.73,15.64-57.34,9.43-78.68-.94-3.24-1.93-6.51-2.92-9.8-8.52-28.3-18.17-60.37-5.67-89.85C591.5,365.17,645.82,355.87,689.47,348.39Z" transform="translate(0 -0.02)"/>
  <path class="cls-2" d="M673.37,609H288.54A47.58,47.58,0,0,1,241,561.41h0V385.1a18.85,18.85,0,0,1,5.88-13.68l203.92-193.3a43.89,43.89,0,0,1,60.39,0l194.43,184.3A49.27,49.27,0,0,1,721,398.18V561.41A47.58,47.58,0,0,1,673.37,609Z" transform="translate(0 -0.02)"/>
  <path class="cls-3" d="M241,388H717V580.26A28.73,28.73,0,0,1,688.22,609H269.69A28.73,28.73,0,0,1,241,580.26h0V388h0Z" transform="translate(0 -0.02)"/>
  <path class="cls-4" d="M240.45,376.49" transform="translate(0 -0.02)"/>
  <rect class="cls-5" x="303.45" y="236.47" width="354" height="354" rx="26.18" ry="26.18"/>
  <polygon class="cls-3" points="657.45 395.93 657.45 590.48 303.45 590.48 303.45 395.93 480.45 481.48 657.45 395.93"/>
  <path class="cls-2" d="M480.45,492.49,253.66,382.87a9.2,9.2,0,0,0-13.21,8.28v188.6a28.73,28.73,0,0,0,28.73,28.73H691.72a28.73,28.73,0,0,0,28.73-28.73h0V394.39a11.23,11.23,0,0,0-16.12-10.11Z" transform="translate(0 -0.02)"/>
  <rect class="cls-1" x="333.95" y="268.97" width="99" height="14"/>
  <rect class="cls-1" x="325.95" y="319.97" width="294" height="8"/>
  <rect class="cls-1" x="325.95" y="346.97" width="294" height="8"/>
  <rect class="cls-1" x="325.95" y="373.97" width="294" height="8"/>
  <path class="cls-6" d="M0,485.35C0,544.31,37,592,82.7,592" transform="translate(0 -0.02)"/>
  <path class="cls-5" d="M82.7,592C82.7,532.4,124,484.15,175,484.15" transform="translate(0 -0.02)"/>
  <path class="cls-5" d="M30,490.7C30,546.7,53.55,592,82.7,592" transform="translate(0 -0.02)"/>
  <path class="cls-6" d="M82.7,592c0-76.18,47.71-137.83,106.67-137.83" transform="translate(0 -0.02)"/>
  <path class="cls-7" d="M65.3,592.78s11.73-.36,15.26-2.88,18-5.52,18.92-1.49,17.63,20.08,4.38,20.18-30.77-2.06-34.29-4.21S65.3,592.78,65.3,592.78Z" transform="translate(0 -0.02)"/>
  <path class="cls-8" d="M104.1,607.19c-13.24.11-30.77-2.06-34.29-4.21-2.69-1.64-3.76-7.51-4.12-10.22l-.39,0s.74,9.46,4.27,11.61,21.05,4.32,34.29,4.21c3.82,0,5.14-1.39,5.07-3.4C108.41,606.41,106.95,607.17,104.1,607.19Z" transform="translate(0 -0.02)"/>
  <path class="cls-9" d="M719.71,162.77c-.6,5.35-4.69,9.67-6.2,14.84-2.28,7.78,1.66,16.14,7,22.2a49.16,49.16,0,0,0,34.23,16.25,14.6,14.6,0,0,0,5.66-.62,12.12,12.12,0,0,0,4.31-2.94c4.06-4.07,6.24-9.72,7.1-15.4s.53-11.47.19-17.21a9.72,9.72,0,0,0-.64-3.47,8.9,8.9,0,0,0-2.23-2.75,52.07,52.07,0,0,0-9.59-7,11,11,0,0,1-4-3.07,9.94,9.94,0,0,1-1.24-3.68l-1.06-5.4a10.61,10.61,0,0,0-1.56-4.38c-1.87-2.52-5.45-2.87-8.59-3l-11.51-.45c-3.58-.14-8.29-1.17-11.79-.46-3.26.66-2.18,3.66-1.59,6.4A46.27,46.27,0,0,1,719.71,162.77Z" transform="translate(0 -0.02)"/>
  <path class="cls-3" d="M719.71,162.77c-.6,5.35-4.69,9.67-6.2,14.84-2.28,7.78,1.66,16.14,7,22.2a49.16,49.16,0,0,0,34.23,16.25,14.6,14.6,0,0,0,5.66-.62,12.12,12.12,0,0,0,4.31-2.94c4.06-4.07,6.24-9.72,7.1-15.4s.53-11.47.19-17.21a9.72,9.72,0,0,0-.64-3.47,8.9,8.9,0,0,0-2.23-2.75,52.07,52.07,0,0,0-9.59-7,11,11,0,0,1-4-3.07,9.94,9.94,0,0,1-1.24-3.68l-1.06-5.4a10.61,10.61,0,0,0-1.56-4.38c-1.87-2.52-5.45-2.87-8.59-3l-11.51-.45c-3.58-.14-8.29-1.17-11.79-.46-3.26.66-2.18,3.66-1.59,6.4A46.27,46.27,0,0,1,719.71,162.77Z" transform="translate(0 -0.02)"/>
  <path class="cls-10" d="M792.9,403.78,788,457.39c-1.28,14.06-2.58,28.18-5.08,42.06-.86,4.78-1.88,9.54-3.08,14.26-3.34,13.1-8.19,25.9-9.76,39.33,0,.39-.09.78-.13,1.18a34.19,34.19,0,0,1-1.67,8.73c-.78,2-2,3.92-2.83,5.94-1.69,4.05-1.91,8.53-2.12,12.92a55.68,55.68,0,0,0-19.17-6.55c-3.25-.49-6.87-.83-9.09-3.26-2.45-2.68-2.18-6.79-1.77-10.4q1.94-16.79,3.87-33.57a87.49,87.49,0,0,1,2.44-14.26c.44-1.56,1-3.09,1.52-4.62.75-2.11,1.51-4.21,2.07-6.38a76.83,76.83,0,0,0,1.71-10.63c1.33-11.26,2.92-22.5,4.32-33.75l.07-.59c2.1-17.06,3.7-34.2,3.24-51.38-.07-2.54-.17-5.09-.34-7.64-.23-3.7-.57-5.66,2.49-8,3.38-2.55,7.84-4.34,11.71-6,2.08-.91,25-9,25.55-7.26a44.69,44.69,0,0,1,1.68,11.71A130.26,130.26,0,0,1,792.9,403.78Z" transform="translate(0 -0.02)"/>
  <path class="cls-3" d="M782.93,499.45c-.86,4.78-1.88,9.54-3.08,14.26-3.34,13.1-8.19,25.9-9.76,39.33,0,.39-.09.78-.13,1.18-10.22-14.6-18.84-30.31-28.81-45.07.75-2.11,1.51-4.21,2.07-6.38a76.83,76.83,0,0,0,1.71-10.63c1.33-11.26,2.92-22.5,4.32-33.75l.07-.59a35,35,0,0,0,2.49,6.92c6.7,13.62,22.62,20.5,30.41,33.53Q782.6,498.84,782.93,499.45Z" transform="translate(0 -0.02)"/>
  <path class="cls-10" d="M700,379.72c.34,10.92,2.09,21.74,3.83,32.53l3.6,22.25c2,12.18,4,24.61,9.78,35.52,4.31,8.16,10.52,15.12,16.14,22.44,13.82,18,24.19,38.39,37.29,56.91,3.81,5.38,9.25,11.21,15.75,10.08,4.27-.74,7.36-4.29,10.72-7,4-3.23,8.72-5.59,11.83-9.64s3.72-10.77-.49-13.65a22.23,22.23,0,0,0-4.82-2c-6.53-2.48-10.76-8.86-13.45-15.31s-4.32-13.38-7.9-19.38c-7.79-13-23.71-19.91-30.41-33.53-3.75-7.63-4.11-16.42-4.4-24.92l-.73-21.66c-.08-2.37-.14-4.83.82-7,2.56-5.77,10.3-6.3,16.57-7a56.69,56.69,0,0,0,20.31-6.41c3.61-1.95,7.14-4.43,9.07-8.05,1.76-3.3,2-7.18,2.21-10.91l2.17-39.26c.19-3.38.36-6.87-.83-10-3-8-13-10.55-21.51-10.17-15.79.71-30.37,7.5-45.25,12.09A115.06,115.06,0,0,1,719,328.5c-3.34.67-7.39.39-10.57,1.47-5.67,1.91-5.52,14.3-6.33,19.45A163.69,163.69,0,0,0,700,379.72Z" transform="translate(0 -0.02)"/>
  <path class="cls-11" d="M784.22,561.1c1.39,1.4,1.85,3.46,2.21,5.41a184.6,184.6,0,0,1,3.13,32.69,5.34,5.34,0,0,0,.59,3,3.72,3.72,0,0,0,1.54,1.24c4,1.92,8.7-.76,12-3.69,6.22-5.45,11.48-12.75,11.83-21a48.78,48.78,0,0,1,.22-6.37c.55-3.11,2.36-5.82,4-8.54a72.05,72.05,0,0,0,6.55-14.67c.61-1.92,1-4.35-.49-5.69a5.48,5.48,0,0,0-1.79-.93l-18.18-6.75c-1.58-.58-5.5,9.48-6.12,10.59-1.52,2.69-3,4.22-6.09,4.84s-6.83-.28-9.73,1.28C779,555.08,781.44,558.3,784.22,561.1Z" transform="translate(0 -0.02)"/>
  <path class="cls-11" d="M756.17,567.32a5.57,5.57,0,0,0-1.38-1.75,6.26,6.26,0,0,0-2.79-.95c-3.46-.59-7.56-1-10,1.6-2.24,2.41-1.85,6.34-3.73,9-.59.86-1.4,1.56-1.91,2.47a9.31,9.31,0,0,0-.84,4.43c-.1,4.2-.19,8.4.1,12.58.24,3.51.83,7.18,3,9.93,3.52,4.41,9.87,5,15.51,5.33l4.57.23a8.91,8.91,0,0,0,3.74-.34,6.16,6.16,0,0,0,3.23-3.55c2.38-5.91-1.39-12.27-3.71-18.2C759.37,581.33,759.85,573.76,756.17,567.32Z" transform="translate(0 -0.02)"/>
  <path class="cls-2" d="M718.39,132.6a3.77,3.77,0,0,1,.26-1.76c.67-1.18,2.41-.86,3.73-.53,5.3,1.34,10.88.13,16.33.44s11.6,3,12.69,8.39a39.82,39.82,0,0,0,10.07-10.35c1.51-2.27,2.83-4.86,2.63-7.58-.3-3.92-3.58-6.85-6.63-9.33l-9.07-7.41a13.67,13.67,0,0,0-4.06-2.58c-2.1-.72-4.38-.37-6.59-.37-6.6,0-13.65-3-19.52,0-2.45,1.26-4.3,3.42-6.08,5.53l-8.1,9.59a5.12,5.12,0,0,0-1.29,2.2c-.23,1.17.37,2.32.58,3.5.38,2.14-.54,4.43.17,6.48,1.18,3.41,5.32,3.9,7.86,5.85.94.73,2.42,3.2,3.55,3.17C716.93,137.81,718.34,134.18,718.39,132.6Z" transform="translate(0 -0.02)"/>
  <circle class="cls-9" cx="732.13" cy="134.91" r="25.93"/>
  <path class="cls-2" d="M738.2,191.68A12.56,12.56,0,0,0,726,183.26a3.73,3.73,0,0,1-2.26-.29,3.11,3.11,0,0,1-.93-1.16,45.3,45.3,0,0,1-3.78-8.94c-.41-1.37-1-3-2.37-3.35a3.2,3.2,0,0,0-3,1.31,26.59,26.59,0,0,1-2.16,2.71c-3.26,2.92-9,.26-12.5,2.93-.57.44-1,1-1.63,1.39a7.59,7.59,0,0,1-1.9.82,182.63,182.63,0,0,0-19.63,7.69c2.3,13.87,4.66,28,10.06,41,2.57,6.18,5.48,12.23,7.54,18.59,4.56,14.1,4.76,29.19,4.81,44,0,10.14,0,20.5-3.3,30.1a28.41,28.41,0,0,0-1.85,6.61c-.2,2.29.47,4.81,2.32,6.16a7.94,7.94,0,0,0,3.58,1.26c5.69.83,11.42-.68,17-2,15-3.48,30.31-5.46,45.59-7.45l25.6-3.32a14.86,14.86,0,0,0,5.3-1.37c4.68-2.56,5.13-9.61,2.22-14.09-1.39-2.15-3.36-3.91-4.53-6.19s-1.27-5.46.75-7c4.1-3.21,2.88-9.16,3.08-14.36q.82-21.83-.22-43.67a87,87,0,0,1-.14-9.06,80.21,80.21,0,0,1,2.82-15.11l7.78-30.63c-2-3.21-5.92-5.25-9.61-6.17s-7.52-1.2-11.15-2.32c-7.44-2.3-14.06-8.15-21.82-7.61a4,4,0,0,0-1.69.41c-1.75,1-1.47,3.52-1.59,5.53-.25,4.45-3.52,8.16-7.13,10.77s-7.74,4.51-11.05,7.48A4.93,4.93,0,0,0,738.2,191.68Z" transform="translate(0 -0.02)"/>
  <path class="cls-9" d="M635.45,220.73a30.61,30.61,0,0,1-5.45,2.81,17.93,17.93,0,0,0-5.22,2.54,8.19,8.19,0,0,0-1.82,2.24,10,10,0,0,0,9.21,14.87,20,20,0,0,0,6.81-2l18.29-7.93c3.1-1.34,6.44-2.91,7.9-6a1.38,1.38,0,0,0,.18-.95,1.56,1.56,0,0,0-.75-.79,40.87,40.87,0,0,1-10.65-10c-.75-1-1.67-3.42-2.73-4C647.34,209.24,638.55,218.72,635.45,220.73Z" transform="translate(0 -0.02)"/>
  <path class="cls-9" d="M831,214.22l6.74,7.7c1.45,1.65,2.9,3.31,4.22,5.07a59.14,59.14,0,0,1,7.72,14.55c1.47,3.85,2.68,7.94,2.17,12a29.42,29.42,0,0,1-1.69,6.12,76.15,76.15,0,0,1-4.58,11,62.87,62.87,0,0,1-5.16,7.73A180.44,180.44,0,0,1,823.32,298c-2.31,2.28-3.27,6-4.28,9.06-1.85,5.69-6.26,10.12-10.51,14.32a29.24,29.24,0,0,1-4.51,3.89,14.7,14.7,0,0,1-8.22,2.34,9,9,0,0,1-3.7-.77c-2.91-1.38-4.4-4.75-4.7-8a17,17,0,0,1,1.42-8.52c3.87-8.57,13.81-12.29,20.83-18.54,4.12-3.67,7.27-8.27,10.37-12.83a44.35,44.35,0,0,0,5.25-9.2c1.57-4.19,1-9.14,2.33-13.39.58-1.8,1.61-3.42,2.23-5.21s.78-3.9-.31-5.44a7.91,7.91,0,0,0-3.05-2.24c-4.49-2.28-9.51-5.21-10.37-10.17a10.89,10.89,0,0,1,2-7.76,32.35,32.35,0,0,1,5.66-5.93C825.72,217.91,829,216,831,214.22Z" transform="translate(0 -0.02)"/>
  <path class="cls-9" d="M631.13,231.48c-1.19-2.41-2.68-4.86-5.08-6.05a9.36,9.36,0,0,0-7.39,0,27.77,27.77,0,0,0-6.48,3.92l-5.81,4.28a14.31,14.31,0,0,0-3.45,3.19,13.44,13.44,0,0,0-1.8,4.93,35.25,35.25,0,0,0-.91,12.2c.92,6.55,4.87,12.28,9.22,17.27,2.72,3.12,6.07,6.26,10.21,6.4,1.78.06,3.77-.65,4.51-2.27a5.66,5.66,0,0,0,.4-2c.45-7.31-2.17-14.45-5.22-21.11a13.54,13.54,0,0,1-1.68-5.67,1.56,1.56,0,0,1,.25-1,1.6,1.6,0,0,1,1-.48c4.17-.83,11.36,2.42,14.29-2.22C635.08,239.84,632.47,234.21,631.13,231.48Z" transform="translate(0 -0.02)"/>
  <path class="cls-2" d="M717,124.44a3.77,3.77,0,0,1,.26-1.76c.67-1.18,2.41-.86,3.73-.53,5.3,1.34,10.88.13,16.33.44s11.6,3,12.69,8.39a39.82,39.82,0,0,0,10.07-10.35c1.51-2.27,2.83-4.86,2.63-7.58-.3-3.92-3.58-6.85-6.63-9.33L747,96.32A13.67,13.67,0,0,0,743,93.74c-2.1-.72-4.38-.37-6.59-.37-6.6,0-13.65-3-19.52,0-2.45,1.26-4.3,3.42-6.08,5.53l-8.1,9.59a5.12,5.12,0,0,0-1.29,2.2c-.23,1.17.37,2.32.58,3.5.38,2.14-.54,4.43.17,6.48,1.18,3.41,5.32,3.9,7.86,5.85.94.73,2.42,3.2,3.55,3.17C715.57,129.65,717,126,717,124.44Z" transform="translate(0 -0.02)"/>
  <path class="cls-2" d="M662,195.5a10.54,10.54,0,0,0-2.71,2.53c-1,1.44-1.14,3.25-2,4.77-1.75,3.25-5.84,4.4-8.39,7.07a2.64,2.64,0,0,0-.81,1.38,3.08,3.08,0,0,0,.68,2l12.3,19.33c4.09.36,8-2.2,12.12-1.86,1.53.13,3.09.66,4.56.2a13.08,13.08,0,0,0,2.93-1.79c2.44-1.55,5.7-1.73,7.75-3.76s2.22-5,2.2-7.79a31.32,31.32,0,0,0-.73-7.17c-1.81-7.42-7.49-13.11-11-19.69-1.73-3.2-2.67-5.07-6.34-2.88S665.42,193,662,195.5Z" transform="translate(0 -0.02)"/>
  <path class="cls-2" d="M811.3,185.73a28.77,28.77,0,0,1,6.19,5.42c1.87,2.42,2.93,5.37,4.73,7.84s4.12,4.25,6.1,6.46c3,3.34,5,7.43,7,11.45a171.06,171.06,0,0,1-15.91,18,5.13,5.13,0,0,1-2.42,1.59,3.9,3.9,0,0,1-3.41-1.39c-.89-.93-1.51-2.07-2.36-3a12.16,12.16,0,0,0-7.52-3.64,51.63,51.63,0,0,0-8.52-.12,3.37,3.37,0,0,1-1.82-.31,3.06,3.06,0,0,1-1-1.14c-3.33-5.67-2.26-12.78-1.08-19.24l2.7-14.84a33.3,33.3,0,0,1,2.24-8.25c1-2.18,3.3-5.88,6.11-5.23S808.91,184,811.3,185.73Z" transform="translate(0 -0.02)"/>
  <ellipse class="cls-12" cx="317.95" cy="242.05" rx="41" ry="41.07"/>
  <path class="cls-13" d="M318,194a49,49,0,1,0,49,49A49,49,0,0,0,318,194ZM307.9,269.12,282.78,244l7-7,18.09,18.09,38.19-38.19,7,7L307.9,269.12Z" transform="translate(0 -0.02)"/>
</svg>
